<mxfile host="Electron" modified="2023-09-13T01:58:08.189Z" agent="Mozilla/5.0 (Windows NT 10.0; Win64; x64) AppleWebKit/537.36 (KHTML, like Gecko) draw.io/21.6.8 Chrome/114.0.5735.289 Electron/25.5.0 Safari/537.36" etag="94bUcSI-wTKVrP_kTNym" version="21.6.8" type="device">
  <diagram id="AWm_jJoB_fNz4sVHrzt7" name="Page-1">
    <mxGraphModel dx="1098" dy="820" grid="1" gridSize="10" guides="1" tooltips="1" connect="1" arrows="1" fold="1" page="1" pageScale="1" pageWidth="1100" pageHeight="850" math="0" shadow="0">
      <root>
        <mxCell id="0" />
        <mxCell id="1" parent="0" />
        <mxCell id="c1lAheNtGnEwH6ut3jd1-3" value="" style="rounded=0;whiteSpace=wrap;html=1;" parent="1" vertex="1">
          <mxGeometry x="30" y="30" width="1050" height="590" as="geometry" />
        </mxCell>
        <mxCell id="q6rLTLklX5a6nk730e43-13" value="" style="rounded=1;whiteSpace=wrap;html=1;" parent="1" vertex="1">
          <mxGeometry x="188" y="50" width="870" height="90" as="geometry" />
        </mxCell>
        <mxCell id="q6rLTLklX5a6nk730e43-1" value="P" style="rounded=0;whiteSpace=wrap;html=1;fillColor=#f8cecc;strokeColor=#b85450;" parent="1" vertex="1">
          <mxGeometry x="208" y="90" width="20" height="30" as="geometry" />
        </mxCell>
        <mxCell id="q6rLTLklX5a6nk730e43-2" value="Head&lt;br&gt;Tail" style="rounded=0;whiteSpace=wrap;html=1;" parent="1" vertex="1">
          <mxGeometry x="228" y="90" width="50" height="30" as="geometry" />
        </mxCell>
        <mxCell id="q6rLTLklX5a6nk730e43-3" value="N" style="rounded=0;whiteSpace=wrap;html=1;" parent="1" vertex="1">
          <mxGeometry x="278" y="90" width="20" height="30" as="geometry" />
        </mxCell>
        <mxCell id="q6rLTLklX5a6nk730e43-4" value="P" style="rounded=0;whiteSpace=wrap;html=1;" parent="1" vertex="1">
          <mxGeometry x="338" y="90" width="20" height="30" as="geometry" />
        </mxCell>
        <mxCell id="q6rLTLklX5a6nk730e43-5" value="" style="rounded=0;whiteSpace=wrap;html=1;" parent="1" vertex="1">
          <mxGeometry x="358" y="90" width="50" height="30" as="geometry" />
        </mxCell>
        <mxCell id="q6rLTLklX5a6nk730e43-6" value="N" style="rounded=0;whiteSpace=wrap;html=1;" parent="1" vertex="1">
          <mxGeometry x="408" y="90" width="20" height="30" as="geometry" />
        </mxCell>
        <mxCell id="q6rLTLklX5a6nk730e43-7" value="P" style="rounded=0;whiteSpace=wrap;html=1;" parent="1" vertex="1">
          <mxGeometry x="458" y="90" width="20" height="30" as="geometry" />
        </mxCell>
        <mxCell id="q6rLTLklX5a6nk730e43-8" value="" style="rounded=0;whiteSpace=wrap;html=1;" parent="1" vertex="1">
          <mxGeometry x="478" y="90" width="50" height="30" as="geometry" />
        </mxCell>
        <mxCell id="q6rLTLklX5a6nk730e43-9" value="N" style="rounded=0;whiteSpace=wrap;html=1;" parent="1" vertex="1">
          <mxGeometry x="528" y="90" width="20" height="30" as="geometry" />
        </mxCell>
        <mxCell id="q6rLTLklX5a6nk730e43-53" value="N" style="rounded=0;whiteSpace=wrap;html=1;" parent="1" vertex="1">
          <mxGeometry x="278" y="90" width="20" height="30" as="geometry" />
        </mxCell>
        <mxCell id="q6rLTLklX5a6nk730e43-54" value="P" style="rounded=0;whiteSpace=wrap;html=1;" parent="1" vertex="1">
          <mxGeometry x="338" y="90" width="20" height="30" as="geometry" />
        </mxCell>
        <mxCell id="q6rLTLklX5a6nk730e43-55" value="N" style="rounded=0;whiteSpace=wrap;html=1;" parent="1" vertex="1">
          <mxGeometry x="408" y="90" width="20" height="30" as="geometry" />
        </mxCell>
        <mxCell id="q6rLTLklX5a6nk730e43-56" value="P" style="rounded=0;whiteSpace=wrap;html=1;" parent="1" vertex="1">
          <mxGeometry x="458" y="90" width="20" height="30" as="geometry" />
        </mxCell>
        <mxCell id="q6rLTLklX5a6nk730e43-127" style="edgeStyle=orthogonalEdgeStyle;rounded=0;orthogonalLoop=1;jettySize=auto;html=1;exitX=0.5;exitY=0;exitDx=0;exitDy=0;entryX=0.5;entryY=0;entryDx=0;entryDy=0;" parent="1" source="q6rLTLklX5a6nk730e43-57" target="q6rLTLklX5a6nk730e43-5" edge="1">
          <mxGeometry relative="1" as="geometry" />
        </mxCell>
        <mxCell id="q6rLTLklX5a6nk730e43-57" value="N" style="rounded=0;whiteSpace=wrap;html=1;fillColor=#f8cecc;strokeColor=#b85450;" parent="1" vertex="1">
          <mxGeometry x="278" y="90" width="20" height="30" as="geometry" />
        </mxCell>
        <mxCell id="q6rLTLklX5a6nk730e43-58" value="P" style="rounded=0;whiteSpace=wrap;html=1;fillColor=#f8cecc;strokeColor=#b85450;" parent="1" vertex="1">
          <mxGeometry x="338" y="90" width="20" height="30" as="geometry" />
        </mxCell>
        <mxCell id="q6rLTLklX5a6nk730e43-128" style="edgeStyle=orthogonalEdgeStyle;rounded=0;orthogonalLoop=1;jettySize=auto;html=1;exitX=0.5;exitY=0;exitDx=0;exitDy=0;entryX=0.5;entryY=0;entryDx=0;entryDy=0;" parent="1" source="q6rLTLklX5a6nk730e43-59" target="q6rLTLklX5a6nk730e43-8" edge="1">
          <mxGeometry relative="1" as="geometry" />
        </mxCell>
        <mxCell id="q6rLTLklX5a6nk730e43-59" value="N" style="rounded=0;whiteSpace=wrap;html=1;fillColor=#d5e8d4;strokeColor=#82b366;" parent="1" vertex="1">
          <mxGeometry x="408" y="90" width="20" height="30" as="geometry" />
        </mxCell>
        <mxCell id="q6rLTLklX5a6nk730e43-60" value="P" style="rounded=0;whiteSpace=wrap;html=1;fillColor=#f8cecc;strokeColor=#b85450;" parent="1" vertex="1">
          <mxGeometry x="458" y="90" width="20" height="30" as="geometry" />
        </mxCell>
        <mxCell id="q6rLTLklX5a6nk730e43-245" style="edgeStyle=orthogonalEdgeStyle;rounded=0;orthogonalLoop=1;jettySize=auto;html=1;exitX=0.5;exitY=0;exitDx=0;exitDy=0;entryX=0.5;entryY=0;entryDx=0;entryDy=0;" parent="1" source="q6rLTLklX5a6nk730e43-61" target="q6rLTLklX5a6nk730e43-220" edge="1">
          <mxGeometry relative="1" as="geometry" />
        </mxCell>
        <mxCell id="q6rLTLklX5a6nk730e43-61" value="N" style="rounded=0;whiteSpace=wrap;html=1;fillColor=#d5e8d4;strokeColor=#82b366;" parent="1" vertex="1">
          <mxGeometry x="528" y="90" width="20" height="30" as="geometry" />
        </mxCell>
        <mxCell id="q6rLTLklX5a6nk730e43-130" value="N" style="rounded=0;whiteSpace=wrap;html=1;fillColor=#d5e8d4;strokeColor=#82b366;" parent="1" vertex="1">
          <mxGeometry x="278" y="90" width="20" height="30" as="geometry" />
        </mxCell>
        <mxCell id="q6rLTLklX5a6nk730e43-219" value="P" style="rounded=0;whiteSpace=wrap;html=1;" parent="1" vertex="1">
          <mxGeometry x="578" y="90" width="20" height="30" as="geometry" />
        </mxCell>
        <mxCell id="q6rLTLklX5a6nk730e43-220" value="" style="rounded=0;whiteSpace=wrap;html=1;" parent="1" vertex="1">
          <mxGeometry x="598" y="90" width="50" height="30" as="geometry" />
        </mxCell>
        <mxCell id="q6rLTLklX5a6nk730e43-221" value="N" style="rounded=0;whiteSpace=wrap;html=1;" parent="1" vertex="1">
          <mxGeometry x="648" y="90" width="20" height="30" as="geometry" />
        </mxCell>
        <mxCell id="q6rLTLklX5a6nk730e43-222" value="P" style="rounded=0;whiteSpace=wrap;html=1;" parent="1" vertex="1">
          <mxGeometry x="698" y="90" width="20" height="30" as="geometry" />
        </mxCell>
        <mxCell id="q6rLTLklX5a6nk730e43-223" value="" style="rounded=0;whiteSpace=wrap;html=1;" parent="1" vertex="1">
          <mxGeometry x="718" y="90" width="50" height="30" as="geometry" />
        </mxCell>
        <mxCell id="q6rLTLklX5a6nk730e43-224" value="N" style="rounded=0;whiteSpace=wrap;html=1;" parent="1" vertex="1">
          <mxGeometry x="768" y="90" width="20" height="30" as="geometry" />
        </mxCell>
        <mxCell id="q6rLTLklX5a6nk730e43-225" value="P" style="rounded=0;whiteSpace=wrap;html=1;" parent="1" vertex="1">
          <mxGeometry x="578" y="90" width="20" height="30" as="geometry" />
        </mxCell>
        <mxCell id="q6rLTLklX5a6nk730e43-226" value="N" style="rounded=0;whiteSpace=wrap;html=1;" parent="1" vertex="1">
          <mxGeometry x="648" y="90" width="20" height="30" as="geometry" />
        </mxCell>
        <mxCell id="q6rLTLklX5a6nk730e43-227" value="P" style="rounded=0;whiteSpace=wrap;html=1;" parent="1" vertex="1">
          <mxGeometry x="698" y="90" width="20" height="30" as="geometry" />
        </mxCell>
        <mxCell id="q6rLTLklX5a6nk730e43-228" value="P" style="rounded=0;whiteSpace=wrap;html=1;fillColor=#f8cecc;strokeColor=#b85450;" parent="1" vertex="1">
          <mxGeometry x="578" y="90" width="20" height="30" as="geometry" />
        </mxCell>
        <mxCell id="q6rLTLklX5a6nk730e43-246" style="edgeStyle=orthogonalEdgeStyle;rounded=0;orthogonalLoop=1;jettySize=auto;html=1;exitX=0.5;exitY=0;exitDx=0;exitDy=0;entryX=0.5;entryY=0;entryDx=0;entryDy=0;" parent="1" source="q6rLTLklX5a6nk730e43-229" target="q6rLTLklX5a6nk730e43-223" edge="1">
          <mxGeometry relative="1" as="geometry" />
        </mxCell>
        <mxCell id="q6rLTLklX5a6nk730e43-229" value="N" style="rounded=0;whiteSpace=wrap;html=1;fillColor=#d5e8d4;strokeColor=#82b366;" parent="1" vertex="1">
          <mxGeometry x="648" y="90" width="20" height="30" as="geometry" />
        </mxCell>
        <mxCell id="q6rLTLklX5a6nk730e43-230" value="P" style="rounded=0;whiteSpace=wrap;html=1;fillColor=#f8cecc;strokeColor=#b85450;" parent="1" vertex="1">
          <mxGeometry x="698" y="90" width="20" height="30" as="geometry" />
        </mxCell>
        <mxCell id="q6rLTLklX5a6nk730e43-247" style="edgeStyle=orthogonalEdgeStyle;rounded=0;orthogonalLoop=1;jettySize=auto;html=1;exitX=0.5;exitY=0;exitDx=0;exitDy=0;entryX=0.5;entryY=0;entryDx=0;entryDy=0;" parent="1" source="q6rLTLklX5a6nk730e43-231" target="q6rLTLklX5a6nk730e43-233" edge="1">
          <mxGeometry relative="1" as="geometry" />
        </mxCell>
        <mxCell id="q6rLTLklX5a6nk730e43-231" value="N" style="rounded=0;whiteSpace=wrap;html=1;fillColor=#d5e8d4;strokeColor=#82b366;" parent="1" vertex="1">
          <mxGeometry x="768" y="90" width="20" height="30" as="geometry" />
        </mxCell>
        <mxCell id="q6rLTLklX5a6nk730e43-232" value="P" style="rounded=0;whiteSpace=wrap;html=1;" parent="1" vertex="1">
          <mxGeometry x="818" y="90" width="20" height="30" as="geometry" />
        </mxCell>
        <mxCell id="q6rLTLklX5a6nk730e43-233" value="" style="rounded=0;whiteSpace=wrap;html=1;" parent="1" vertex="1">
          <mxGeometry x="838" y="90" width="50" height="30" as="geometry" />
        </mxCell>
        <mxCell id="q6rLTLklX5a6nk730e43-234" value="N" style="rounded=0;whiteSpace=wrap;html=1;" parent="1" vertex="1">
          <mxGeometry x="888" y="90" width="20" height="30" as="geometry" />
        </mxCell>
        <mxCell id="q6rLTLklX5a6nk730e43-235" value="P" style="rounded=0;whiteSpace=wrap;html=1;" parent="1" vertex="1">
          <mxGeometry x="938" y="90" width="20" height="30" as="geometry" />
        </mxCell>
        <mxCell id="q6rLTLklX5a6nk730e43-236" value="End" style="rounded=0;whiteSpace=wrap;html=1;" parent="1" vertex="1">
          <mxGeometry x="958" y="90" width="50" height="30" as="geometry" />
        </mxCell>
        <mxCell id="q6rLTLklX5a6nk730e43-237" value="N" style="rounded=0;whiteSpace=wrap;html=1;" parent="1" vertex="1">
          <mxGeometry x="1008" y="90" width="20" height="30" as="geometry" />
        </mxCell>
        <mxCell id="q6rLTLklX5a6nk730e43-238" value="P" style="rounded=0;whiteSpace=wrap;html=1;" parent="1" vertex="1">
          <mxGeometry x="818" y="90" width="20" height="30" as="geometry" />
        </mxCell>
        <mxCell id="q6rLTLklX5a6nk730e43-239" value="N" style="rounded=0;whiteSpace=wrap;html=1;" parent="1" vertex="1">
          <mxGeometry x="888" y="90" width="20" height="30" as="geometry" />
        </mxCell>
        <mxCell id="q6rLTLklX5a6nk730e43-240" value="P" style="rounded=0;whiteSpace=wrap;html=1;" parent="1" vertex="1">
          <mxGeometry x="938" y="90" width="20" height="30" as="geometry" />
        </mxCell>
        <mxCell id="q6rLTLklX5a6nk730e43-241" value="P" style="rounded=0;whiteSpace=wrap;html=1;fillColor=#f8cecc;strokeColor=#b85450;" parent="1" vertex="1">
          <mxGeometry x="818" y="90" width="20" height="30" as="geometry" />
        </mxCell>
        <mxCell id="q6rLTLklX5a6nk730e43-248" style="edgeStyle=orthogonalEdgeStyle;rounded=0;orthogonalLoop=1;jettySize=auto;html=1;exitX=0.5;exitY=0;exitDx=0;exitDy=0;entryX=0.5;entryY=0;entryDx=0;entryDy=0;" parent="1" source="q6rLTLklX5a6nk730e43-242" target="q6rLTLklX5a6nk730e43-236" edge="1">
          <mxGeometry relative="1" as="geometry" />
        </mxCell>
        <mxCell id="q6rLTLklX5a6nk730e43-242" value="N" style="rounded=0;whiteSpace=wrap;html=1;fillColor=#d5e8d4;strokeColor=#82b366;" parent="1" vertex="1">
          <mxGeometry x="888" y="90" width="20" height="30" as="geometry" />
        </mxCell>
        <mxCell id="q6rLTLklX5a6nk730e43-243" value="P" style="rounded=0;whiteSpace=wrap;html=1;fillColor=#f8cecc;strokeColor=#b85450;" parent="1" vertex="1">
          <mxGeometry x="938" y="90" width="20" height="30" as="geometry" />
        </mxCell>
        <mxCell id="q6rLTLklX5a6nk730e43-244" value="N" style="rounded=0;whiteSpace=wrap;html=1;fillColor=#f8cecc;strokeColor=#b85450;" parent="1" vertex="1">
          <mxGeometry x="1008" y="90" width="20" height="30" as="geometry" />
        </mxCell>
        <mxCell id="q6rLTLklX5a6nk730e43-249" value="Init&lt;br&gt;Count = 0" style="text;html=1;align=center;verticalAlign=middle;resizable=0;points=[];autosize=1;strokeColor=none;fillColor=none;" parent="1" vertex="1">
          <mxGeometry x="78" y="75" width="80" height="40" as="geometry" />
        </mxCell>
        <mxCell id="q6rLTLklX5a6nk730e43-250" value="" style="rounded=1;whiteSpace=wrap;html=1;" parent="1" vertex="1">
          <mxGeometry x="188" y="180" width="870" height="100" as="geometry" />
        </mxCell>
        <mxCell id="q6rLTLklX5a6nk730e43-251" value="P" style="rounded=0;whiteSpace=wrap;html=1;fillColor=#f8cecc;strokeColor=#b85450;" parent="1" vertex="1">
          <mxGeometry x="208" y="220" width="20" height="30" as="geometry" />
        </mxCell>
        <mxCell id="q6rLTLklX5a6nk730e43-252" value="Head&lt;br&gt;Tail" style="rounded=0;whiteSpace=wrap;html=1;fillColor=#dae8fc;strokeColor=#6c8ebf;" parent="1" vertex="1">
          <mxGeometry x="228" y="220" width="50" height="30" as="geometry" />
        </mxCell>
        <mxCell id="q6rLTLklX5a6nk730e43-253" value="N" style="rounded=0;whiteSpace=wrap;html=1;" parent="1" vertex="1">
          <mxGeometry x="278" y="220" width="20" height="30" as="geometry" />
        </mxCell>
        <mxCell id="q6rLTLklX5a6nk730e43-254" value="P" style="rounded=0;whiteSpace=wrap;html=1;" parent="1" vertex="1">
          <mxGeometry x="338" y="220" width="20" height="30" as="geometry" />
        </mxCell>
        <mxCell id="q6rLTLklX5a6nk730e43-255" value="" style="rounded=0;whiteSpace=wrap;html=1;" parent="1" vertex="1">
          <mxGeometry x="358" y="220" width="50" height="30" as="geometry" />
        </mxCell>
        <mxCell id="q6rLTLklX5a6nk730e43-256" value="N" style="rounded=0;whiteSpace=wrap;html=1;" parent="1" vertex="1">
          <mxGeometry x="408" y="220" width="20" height="30" as="geometry" />
        </mxCell>
        <mxCell id="q6rLTLklX5a6nk730e43-257" value="P" style="rounded=0;whiteSpace=wrap;html=1;" parent="1" vertex="1">
          <mxGeometry x="458" y="220" width="20" height="30" as="geometry" />
        </mxCell>
        <mxCell id="q6rLTLklX5a6nk730e43-258" value="" style="rounded=0;whiteSpace=wrap;html=1;" parent="1" vertex="1">
          <mxGeometry x="478" y="220" width="50" height="30" as="geometry" />
        </mxCell>
        <mxCell id="q6rLTLklX5a6nk730e43-259" value="N" style="rounded=0;whiteSpace=wrap;html=1;" parent="1" vertex="1">
          <mxGeometry x="528" y="220" width="20" height="30" as="geometry" />
        </mxCell>
        <mxCell id="q6rLTLklX5a6nk730e43-260" value="N" style="rounded=0;whiteSpace=wrap;html=1;" parent="1" vertex="1">
          <mxGeometry x="278" y="220" width="20" height="30" as="geometry" />
        </mxCell>
        <mxCell id="q6rLTLklX5a6nk730e43-261" value="P" style="rounded=0;whiteSpace=wrap;html=1;" parent="1" vertex="1">
          <mxGeometry x="338" y="220" width="20" height="30" as="geometry" />
        </mxCell>
        <mxCell id="q6rLTLklX5a6nk730e43-262" value="N" style="rounded=0;whiteSpace=wrap;html=1;" parent="1" vertex="1">
          <mxGeometry x="408" y="220" width="20" height="30" as="geometry" />
        </mxCell>
        <mxCell id="q6rLTLklX5a6nk730e43-263" value="P" style="rounded=0;whiteSpace=wrap;html=1;" parent="1" vertex="1">
          <mxGeometry x="458" y="220" width="20" height="30" as="geometry" />
        </mxCell>
        <mxCell id="q6rLTLklX5a6nk730e43-264" style="edgeStyle=orthogonalEdgeStyle;rounded=0;orthogonalLoop=1;jettySize=auto;html=1;exitX=0.5;exitY=0;exitDx=0;exitDy=0;entryX=0.5;entryY=0;entryDx=0;entryDy=0;" parent="1" source="q6rLTLklX5a6nk730e43-265" target="q6rLTLklX5a6nk730e43-255" edge="1">
          <mxGeometry relative="1" as="geometry" />
        </mxCell>
        <mxCell id="q6rLTLklX5a6nk730e43-265" value="N" style="rounded=0;whiteSpace=wrap;html=1;fillColor=#f8cecc;strokeColor=#b85450;" parent="1" vertex="1">
          <mxGeometry x="278" y="220" width="20" height="30" as="geometry" />
        </mxCell>
        <mxCell id="q6rLTLklX5a6nk730e43-266" value="P" style="rounded=0;whiteSpace=wrap;html=1;fillColor=#f8cecc;strokeColor=#b85450;" parent="1" vertex="1">
          <mxGeometry x="338" y="220" width="20" height="30" as="geometry" />
        </mxCell>
        <mxCell id="q6rLTLklX5a6nk730e43-267" style="edgeStyle=orthogonalEdgeStyle;rounded=0;orthogonalLoop=1;jettySize=auto;html=1;exitX=0.5;exitY=0;exitDx=0;exitDy=0;entryX=0.5;entryY=0;entryDx=0;entryDy=0;" parent="1" source="q6rLTLklX5a6nk730e43-268" target="q6rLTLklX5a6nk730e43-258" edge="1">
          <mxGeometry relative="1" as="geometry" />
        </mxCell>
        <mxCell id="q6rLTLklX5a6nk730e43-268" value="N" style="rounded=0;whiteSpace=wrap;html=1;fillColor=#d5e8d4;strokeColor=#82b366;" parent="1" vertex="1">
          <mxGeometry x="408" y="220" width="20" height="30" as="geometry" />
        </mxCell>
        <mxCell id="q6rLTLklX5a6nk730e43-269" value="P" style="rounded=0;whiteSpace=wrap;html=1;fillColor=#f8cecc;strokeColor=#b85450;" parent="1" vertex="1">
          <mxGeometry x="458" y="220" width="20" height="30" as="geometry" />
        </mxCell>
        <mxCell id="q6rLTLklX5a6nk730e43-270" style="edgeStyle=orthogonalEdgeStyle;rounded=0;orthogonalLoop=1;jettySize=auto;html=1;exitX=0.5;exitY=0;exitDx=0;exitDy=0;entryX=0.5;entryY=0;entryDx=0;entryDy=0;" parent="1" source="q6rLTLklX5a6nk730e43-271" target="q6rLTLklX5a6nk730e43-274" edge="1">
          <mxGeometry relative="1" as="geometry" />
        </mxCell>
        <mxCell id="q6rLTLklX5a6nk730e43-271" value="N" style="rounded=0;whiteSpace=wrap;html=1;fillColor=#d5e8d4;strokeColor=#82b366;" parent="1" vertex="1">
          <mxGeometry x="528" y="220" width="20" height="30" as="geometry" />
        </mxCell>
        <mxCell id="q6rLTLklX5a6nk730e43-272" value="N" style="rounded=0;whiteSpace=wrap;html=1;fillColor=#d5e8d4;strokeColor=#82b366;" parent="1" vertex="1">
          <mxGeometry x="278" y="220" width="20" height="30" as="geometry" />
        </mxCell>
        <mxCell id="q6rLTLklX5a6nk730e43-273" value="P" style="rounded=0;whiteSpace=wrap;html=1;" parent="1" vertex="1">
          <mxGeometry x="578" y="220" width="20" height="30" as="geometry" />
        </mxCell>
        <mxCell id="q6rLTLklX5a6nk730e43-274" value="" style="rounded=0;whiteSpace=wrap;html=1;" parent="1" vertex="1">
          <mxGeometry x="598" y="220" width="50" height="30" as="geometry" />
        </mxCell>
        <mxCell id="q6rLTLklX5a6nk730e43-275" value="N" style="rounded=0;whiteSpace=wrap;html=1;" parent="1" vertex="1">
          <mxGeometry x="648" y="220" width="20" height="30" as="geometry" />
        </mxCell>
        <mxCell id="q6rLTLklX5a6nk730e43-276" value="P" style="rounded=0;whiteSpace=wrap;html=1;" parent="1" vertex="1">
          <mxGeometry x="698" y="220" width="20" height="30" as="geometry" />
        </mxCell>
        <mxCell id="q6rLTLklX5a6nk730e43-277" value="" style="rounded=0;whiteSpace=wrap;html=1;" parent="1" vertex="1">
          <mxGeometry x="718" y="220" width="50" height="30" as="geometry" />
        </mxCell>
        <mxCell id="q6rLTLklX5a6nk730e43-278" value="N" style="rounded=0;whiteSpace=wrap;html=1;" parent="1" vertex="1">
          <mxGeometry x="768" y="220" width="20" height="30" as="geometry" />
        </mxCell>
        <mxCell id="q6rLTLklX5a6nk730e43-279" value="P" style="rounded=0;whiteSpace=wrap;html=1;" parent="1" vertex="1">
          <mxGeometry x="578" y="220" width="20" height="30" as="geometry" />
        </mxCell>
        <mxCell id="q6rLTLklX5a6nk730e43-280" value="N" style="rounded=0;whiteSpace=wrap;html=1;" parent="1" vertex="1">
          <mxGeometry x="648" y="220" width="20" height="30" as="geometry" />
        </mxCell>
        <mxCell id="q6rLTLklX5a6nk730e43-281" value="P" style="rounded=0;whiteSpace=wrap;html=1;" parent="1" vertex="1">
          <mxGeometry x="698" y="220" width="20" height="30" as="geometry" />
        </mxCell>
        <mxCell id="q6rLTLklX5a6nk730e43-282" value="P" style="rounded=0;whiteSpace=wrap;html=1;fillColor=#f8cecc;strokeColor=#b85450;" parent="1" vertex="1">
          <mxGeometry x="578" y="220" width="20" height="30" as="geometry" />
        </mxCell>
        <mxCell id="q6rLTLklX5a6nk730e43-283" style="edgeStyle=orthogonalEdgeStyle;rounded=0;orthogonalLoop=1;jettySize=auto;html=1;exitX=0.5;exitY=0;exitDx=0;exitDy=0;entryX=0.5;entryY=0;entryDx=0;entryDy=0;" parent="1" source="q6rLTLklX5a6nk730e43-284" target="q6rLTLklX5a6nk730e43-277" edge="1">
          <mxGeometry relative="1" as="geometry" />
        </mxCell>
        <mxCell id="q6rLTLklX5a6nk730e43-284" value="N" style="rounded=0;whiteSpace=wrap;html=1;fillColor=#d5e8d4;strokeColor=#82b366;" parent="1" vertex="1">
          <mxGeometry x="648" y="220" width="20" height="30" as="geometry" />
        </mxCell>
        <mxCell id="q6rLTLklX5a6nk730e43-285" value="P" style="rounded=0;whiteSpace=wrap;html=1;fillColor=#f8cecc;strokeColor=#b85450;" parent="1" vertex="1">
          <mxGeometry x="698" y="220" width="20" height="30" as="geometry" />
        </mxCell>
        <mxCell id="q6rLTLklX5a6nk730e43-286" style="edgeStyle=orthogonalEdgeStyle;rounded=0;orthogonalLoop=1;jettySize=auto;html=1;exitX=0.5;exitY=0;exitDx=0;exitDy=0;entryX=0.5;entryY=0;entryDx=0;entryDy=0;" parent="1" source="q6rLTLklX5a6nk730e43-287" target="q6rLTLklX5a6nk730e43-289" edge="1">
          <mxGeometry relative="1" as="geometry" />
        </mxCell>
        <mxCell id="q6rLTLklX5a6nk730e43-287" value="N" style="rounded=0;whiteSpace=wrap;html=1;fillColor=#d5e8d4;strokeColor=#82b366;" parent="1" vertex="1">
          <mxGeometry x="768" y="220" width="20" height="30" as="geometry" />
        </mxCell>
        <mxCell id="q6rLTLklX5a6nk730e43-288" value="P" style="rounded=0;whiteSpace=wrap;html=1;" parent="1" vertex="1">
          <mxGeometry x="818" y="220" width="20" height="30" as="geometry" />
        </mxCell>
        <mxCell id="q6rLTLklX5a6nk730e43-289" value="" style="rounded=0;whiteSpace=wrap;html=1;" parent="1" vertex="1">
          <mxGeometry x="838" y="220" width="50" height="30" as="geometry" />
        </mxCell>
        <mxCell id="q6rLTLklX5a6nk730e43-290" value="N" style="rounded=0;whiteSpace=wrap;html=1;" parent="1" vertex="1">
          <mxGeometry x="888" y="220" width="20" height="30" as="geometry" />
        </mxCell>
        <mxCell id="q6rLTLklX5a6nk730e43-291" value="P" style="rounded=0;whiteSpace=wrap;html=1;" parent="1" vertex="1">
          <mxGeometry x="938" y="220" width="20" height="30" as="geometry" />
        </mxCell>
        <mxCell id="q6rLTLklX5a6nk730e43-292" value="End" style="rounded=0;whiteSpace=wrap;html=1;" parent="1" vertex="1">
          <mxGeometry x="958" y="220" width="50" height="30" as="geometry" />
        </mxCell>
        <mxCell id="q6rLTLklX5a6nk730e43-293" value="N" style="rounded=0;whiteSpace=wrap;html=1;" parent="1" vertex="1">
          <mxGeometry x="1008" y="220" width="20" height="30" as="geometry" />
        </mxCell>
        <mxCell id="q6rLTLklX5a6nk730e43-294" value="P" style="rounded=0;whiteSpace=wrap;html=1;" parent="1" vertex="1">
          <mxGeometry x="818" y="220" width="20" height="30" as="geometry" />
        </mxCell>
        <mxCell id="q6rLTLklX5a6nk730e43-295" value="N" style="rounded=0;whiteSpace=wrap;html=1;" parent="1" vertex="1">
          <mxGeometry x="888" y="220" width="20" height="30" as="geometry" />
        </mxCell>
        <mxCell id="q6rLTLklX5a6nk730e43-296" value="P" style="rounded=0;whiteSpace=wrap;html=1;" parent="1" vertex="1">
          <mxGeometry x="938" y="220" width="20" height="30" as="geometry" />
        </mxCell>
        <mxCell id="q6rLTLklX5a6nk730e43-297" value="P" style="rounded=0;whiteSpace=wrap;html=1;fillColor=#f8cecc;strokeColor=#b85450;" parent="1" vertex="1">
          <mxGeometry x="818" y="220" width="20" height="30" as="geometry" />
        </mxCell>
        <mxCell id="q6rLTLklX5a6nk730e43-298" style="edgeStyle=orthogonalEdgeStyle;rounded=0;orthogonalLoop=1;jettySize=auto;html=1;exitX=0.5;exitY=0;exitDx=0;exitDy=0;entryX=0.5;entryY=0;entryDx=0;entryDy=0;" parent="1" source="q6rLTLklX5a6nk730e43-299" target="q6rLTLklX5a6nk730e43-292" edge="1">
          <mxGeometry relative="1" as="geometry" />
        </mxCell>
        <mxCell id="q6rLTLklX5a6nk730e43-299" value="N" style="rounded=0;whiteSpace=wrap;html=1;fillColor=#d5e8d4;strokeColor=#82b366;" parent="1" vertex="1">
          <mxGeometry x="888" y="220" width="20" height="30" as="geometry" />
        </mxCell>
        <mxCell id="q6rLTLklX5a6nk730e43-300" value="P" style="rounded=0;whiteSpace=wrap;html=1;fillColor=#f8cecc;strokeColor=#b85450;" parent="1" vertex="1">
          <mxGeometry x="938" y="220" width="20" height="30" as="geometry" />
        </mxCell>
        <mxCell id="q6rLTLklX5a6nk730e43-301" value="N" style="rounded=0;whiteSpace=wrap;html=1;fillColor=#f8cecc;strokeColor=#b85450;" parent="1" vertex="1">
          <mxGeometry x="1008" y="220" width="20" height="30" as="geometry" />
        </mxCell>
        <mxCell id="q6rLTLklX5a6nk730e43-302" value="Add an element &lt;br&gt;when queue is empty&lt;br&gt;Count = 1" style="text;html=1;align=center;verticalAlign=middle;resizable=0;points=[];autosize=1;strokeColor=none;fillColor=none;" parent="1" vertex="1">
          <mxGeometry x="48" y="195" width="140" height="60" as="geometry" />
        </mxCell>
        <mxCell id="q6rLTLklX5a6nk730e43-303" value="" style="rounded=1;whiteSpace=wrap;html=1;" parent="1" vertex="1">
          <mxGeometry x="188" y="330" width="870" height="110" as="geometry" />
        </mxCell>
        <mxCell id="q6rLTLklX5a6nk730e43-304" value="P" style="rounded=0;whiteSpace=wrap;html=1;fillColor=#f8cecc;strokeColor=#b85450;" parent="1" vertex="1">
          <mxGeometry x="208" y="370" width="20" height="30" as="geometry" />
        </mxCell>
        <mxCell id="q6rLTLklX5a6nk730e43-305" value="Head" style="rounded=0;whiteSpace=wrap;html=1;fillColor=#dae8fc;strokeColor=#6c8ebf;" parent="1" vertex="1">
          <mxGeometry x="228" y="370" width="50" height="30" as="geometry" />
        </mxCell>
        <mxCell id="q6rLTLklX5a6nk730e43-306" value="N" style="rounded=0;whiteSpace=wrap;html=1;" parent="1" vertex="1">
          <mxGeometry x="278" y="370" width="20" height="30" as="geometry" />
        </mxCell>
        <mxCell id="q6rLTLklX5a6nk730e43-307" value="P" style="rounded=0;whiteSpace=wrap;html=1;" parent="1" vertex="1">
          <mxGeometry x="338" y="370" width="20" height="30" as="geometry" />
        </mxCell>
        <mxCell id="q6rLTLklX5a6nk730e43-308" value="Tail" style="rounded=0;whiteSpace=wrap;html=1;fillColor=#dae8fc;strokeColor=#6c8ebf;" parent="1" vertex="1">
          <mxGeometry x="358" y="370" width="50" height="30" as="geometry" />
        </mxCell>
        <mxCell id="q6rLTLklX5a6nk730e43-309" value="N" style="rounded=0;whiteSpace=wrap;html=1;" parent="1" vertex="1">
          <mxGeometry x="408" y="370" width="20" height="30" as="geometry" />
        </mxCell>
        <mxCell id="q6rLTLklX5a6nk730e43-310" value="P" style="rounded=0;whiteSpace=wrap;html=1;" parent="1" vertex="1">
          <mxGeometry x="458" y="370" width="20" height="30" as="geometry" />
        </mxCell>
        <mxCell id="q6rLTLklX5a6nk730e43-311" value="" style="rounded=0;whiteSpace=wrap;html=1;" parent="1" vertex="1">
          <mxGeometry x="478" y="370" width="50" height="30" as="geometry" />
        </mxCell>
        <mxCell id="q6rLTLklX5a6nk730e43-312" value="N" style="rounded=0;whiteSpace=wrap;html=1;" parent="1" vertex="1">
          <mxGeometry x="528" y="370" width="20" height="30" as="geometry" />
        </mxCell>
        <mxCell id="q6rLTLklX5a6nk730e43-313" value="N" style="rounded=0;whiteSpace=wrap;html=1;" parent="1" vertex="1">
          <mxGeometry x="278" y="370" width="20" height="30" as="geometry" />
        </mxCell>
        <mxCell id="q6rLTLklX5a6nk730e43-314" value="P" style="rounded=0;whiteSpace=wrap;html=1;" parent="1" vertex="1">
          <mxGeometry x="338" y="370" width="20" height="30" as="geometry" />
        </mxCell>
        <mxCell id="q6rLTLklX5a6nk730e43-315" value="N" style="rounded=0;whiteSpace=wrap;html=1;" parent="1" vertex="1">
          <mxGeometry x="408" y="370" width="20" height="30" as="geometry" />
        </mxCell>
        <mxCell id="q6rLTLklX5a6nk730e43-316" value="P" style="rounded=0;whiteSpace=wrap;html=1;" parent="1" vertex="1">
          <mxGeometry x="458" y="370" width="20" height="30" as="geometry" />
        </mxCell>
        <mxCell id="q6rLTLklX5a6nk730e43-317" style="edgeStyle=orthogonalEdgeStyle;rounded=0;orthogonalLoop=1;jettySize=auto;html=1;exitX=0.5;exitY=0;exitDx=0;exitDy=0;entryX=0.5;entryY=0;entryDx=0;entryDy=0;" parent="1" source="q6rLTLklX5a6nk730e43-318" target="q6rLTLklX5a6nk730e43-308" edge="1">
          <mxGeometry relative="1" as="geometry" />
        </mxCell>
        <mxCell id="q6rLTLklX5a6nk730e43-318" value="N" style="rounded=0;whiteSpace=wrap;html=1;fillColor=#f8cecc;strokeColor=#b85450;" parent="1" vertex="1">
          <mxGeometry x="278" y="370" width="20" height="30" as="geometry" />
        </mxCell>
        <mxCell id="q6rLTLklX5a6nk730e43-356" style="edgeStyle=orthogonalEdgeStyle;rounded=0;orthogonalLoop=1;jettySize=auto;html=1;exitX=0.5;exitY=1;exitDx=0;exitDy=0;entryX=0.5;entryY=1;entryDx=0;entryDy=0;" parent="1" source="q6rLTLklX5a6nk730e43-319" target="q6rLTLklX5a6nk730e43-305" edge="1">
          <mxGeometry relative="1" as="geometry" />
        </mxCell>
        <mxCell id="q6rLTLklX5a6nk730e43-319" value="P" style="rounded=0;whiteSpace=wrap;html=1;fillColor=#d5e8d4;strokeColor=#82b366;" parent="1" vertex="1">
          <mxGeometry x="338" y="370" width="20" height="30" as="geometry" />
        </mxCell>
        <mxCell id="q6rLTLklX5a6nk730e43-320" style="edgeStyle=orthogonalEdgeStyle;rounded=0;orthogonalLoop=1;jettySize=auto;html=1;exitX=0.5;exitY=0;exitDx=0;exitDy=0;entryX=0.5;entryY=0;entryDx=0;entryDy=0;" parent="1" source="q6rLTLklX5a6nk730e43-321" target="q6rLTLklX5a6nk730e43-311" edge="1">
          <mxGeometry relative="1" as="geometry" />
        </mxCell>
        <mxCell id="q6rLTLklX5a6nk730e43-321" value="N" style="rounded=0;whiteSpace=wrap;html=1;fillColor=#d5e8d4;strokeColor=#82b366;" parent="1" vertex="1">
          <mxGeometry x="408" y="370" width="20" height="30" as="geometry" />
        </mxCell>
        <mxCell id="q6rLTLklX5a6nk730e43-322" value="P" style="rounded=0;whiteSpace=wrap;html=1;fillColor=#f8cecc;strokeColor=#b85450;" parent="1" vertex="1">
          <mxGeometry x="458" y="370" width="20" height="30" as="geometry" />
        </mxCell>
        <mxCell id="q6rLTLklX5a6nk730e43-323" style="edgeStyle=orthogonalEdgeStyle;rounded=0;orthogonalLoop=1;jettySize=auto;html=1;exitX=0.5;exitY=0;exitDx=0;exitDy=0;entryX=0.5;entryY=0;entryDx=0;entryDy=0;" parent="1" source="q6rLTLklX5a6nk730e43-324" target="q6rLTLklX5a6nk730e43-327" edge="1">
          <mxGeometry relative="1" as="geometry" />
        </mxCell>
        <mxCell id="q6rLTLklX5a6nk730e43-324" value="N" style="rounded=0;whiteSpace=wrap;html=1;fillColor=#d5e8d4;strokeColor=#82b366;" parent="1" vertex="1">
          <mxGeometry x="528" y="370" width="20" height="30" as="geometry" />
        </mxCell>
        <mxCell id="q6rLTLklX5a6nk730e43-325" value="N" style="rounded=0;whiteSpace=wrap;html=1;fillColor=#d5e8d4;strokeColor=#82b366;" parent="1" vertex="1">
          <mxGeometry x="278" y="370" width="20" height="30" as="geometry" />
        </mxCell>
        <mxCell id="q6rLTLklX5a6nk730e43-326" value="P" style="rounded=0;whiteSpace=wrap;html=1;" parent="1" vertex="1">
          <mxGeometry x="578" y="370" width="20" height="30" as="geometry" />
        </mxCell>
        <mxCell id="q6rLTLklX5a6nk730e43-327" value="" style="rounded=0;whiteSpace=wrap;html=1;" parent="1" vertex="1">
          <mxGeometry x="598" y="370" width="50" height="30" as="geometry" />
        </mxCell>
        <mxCell id="q6rLTLklX5a6nk730e43-328" value="N" style="rounded=0;whiteSpace=wrap;html=1;" parent="1" vertex="1">
          <mxGeometry x="648" y="370" width="20" height="30" as="geometry" />
        </mxCell>
        <mxCell id="q6rLTLklX5a6nk730e43-329" value="P" style="rounded=0;whiteSpace=wrap;html=1;" parent="1" vertex="1">
          <mxGeometry x="698" y="370" width="20" height="30" as="geometry" />
        </mxCell>
        <mxCell id="q6rLTLklX5a6nk730e43-330" value="" style="rounded=0;whiteSpace=wrap;html=1;" parent="1" vertex="1">
          <mxGeometry x="718" y="370" width="50" height="30" as="geometry" />
        </mxCell>
        <mxCell id="q6rLTLklX5a6nk730e43-331" value="N" style="rounded=0;whiteSpace=wrap;html=1;" parent="1" vertex="1">
          <mxGeometry x="768" y="370" width="20" height="30" as="geometry" />
        </mxCell>
        <mxCell id="q6rLTLklX5a6nk730e43-332" value="P" style="rounded=0;whiteSpace=wrap;html=1;" parent="1" vertex="1">
          <mxGeometry x="578" y="370" width="20" height="30" as="geometry" />
        </mxCell>
        <mxCell id="q6rLTLklX5a6nk730e43-333" value="N" style="rounded=0;whiteSpace=wrap;html=1;" parent="1" vertex="1">
          <mxGeometry x="648" y="370" width="20" height="30" as="geometry" />
        </mxCell>
        <mxCell id="q6rLTLklX5a6nk730e43-334" value="P" style="rounded=0;whiteSpace=wrap;html=1;" parent="1" vertex="1">
          <mxGeometry x="698" y="370" width="20" height="30" as="geometry" />
        </mxCell>
        <mxCell id="q6rLTLklX5a6nk730e43-335" value="P" style="rounded=0;whiteSpace=wrap;html=1;fillColor=#f8cecc;strokeColor=#b85450;" parent="1" vertex="1">
          <mxGeometry x="578" y="370" width="20" height="30" as="geometry" />
        </mxCell>
        <mxCell id="q6rLTLklX5a6nk730e43-336" style="edgeStyle=orthogonalEdgeStyle;rounded=0;orthogonalLoop=1;jettySize=auto;html=1;exitX=0.5;exitY=0;exitDx=0;exitDy=0;entryX=0.5;entryY=0;entryDx=0;entryDy=0;" parent="1" source="q6rLTLklX5a6nk730e43-337" target="q6rLTLklX5a6nk730e43-330" edge="1">
          <mxGeometry relative="1" as="geometry" />
        </mxCell>
        <mxCell id="q6rLTLklX5a6nk730e43-337" value="N" style="rounded=0;whiteSpace=wrap;html=1;fillColor=#d5e8d4;strokeColor=#82b366;" parent="1" vertex="1">
          <mxGeometry x="648" y="370" width="20" height="30" as="geometry" />
        </mxCell>
        <mxCell id="q6rLTLklX5a6nk730e43-338" value="P" style="rounded=0;whiteSpace=wrap;html=1;fillColor=#f8cecc;strokeColor=#b85450;" parent="1" vertex="1">
          <mxGeometry x="698" y="370" width="20" height="30" as="geometry" />
        </mxCell>
        <mxCell id="q6rLTLklX5a6nk730e43-339" style="edgeStyle=orthogonalEdgeStyle;rounded=0;orthogonalLoop=1;jettySize=auto;html=1;exitX=0.5;exitY=0;exitDx=0;exitDy=0;entryX=0.5;entryY=0;entryDx=0;entryDy=0;" parent="1" source="q6rLTLklX5a6nk730e43-340" target="q6rLTLklX5a6nk730e43-342" edge="1">
          <mxGeometry relative="1" as="geometry" />
        </mxCell>
        <mxCell id="q6rLTLklX5a6nk730e43-340" value="N" style="rounded=0;whiteSpace=wrap;html=1;fillColor=#d5e8d4;strokeColor=#82b366;" parent="1" vertex="1">
          <mxGeometry x="768" y="370" width="20" height="30" as="geometry" />
        </mxCell>
        <mxCell id="q6rLTLklX5a6nk730e43-341" value="P" style="rounded=0;whiteSpace=wrap;html=1;" parent="1" vertex="1">
          <mxGeometry x="818" y="370" width="20" height="30" as="geometry" />
        </mxCell>
        <mxCell id="q6rLTLklX5a6nk730e43-342" value="" style="rounded=0;whiteSpace=wrap;html=1;" parent="1" vertex="1">
          <mxGeometry x="838" y="370" width="50" height="30" as="geometry" />
        </mxCell>
        <mxCell id="q6rLTLklX5a6nk730e43-343" value="N" style="rounded=0;whiteSpace=wrap;html=1;" parent="1" vertex="1">
          <mxGeometry x="888" y="370" width="20" height="30" as="geometry" />
        </mxCell>
        <mxCell id="q6rLTLklX5a6nk730e43-344" value="P" style="rounded=0;whiteSpace=wrap;html=1;" parent="1" vertex="1">
          <mxGeometry x="938" y="370" width="20" height="30" as="geometry" />
        </mxCell>
        <mxCell id="q6rLTLklX5a6nk730e43-345" value="End" style="rounded=0;whiteSpace=wrap;html=1;" parent="1" vertex="1">
          <mxGeometry x="958" y="370" width="50" height="30" as="geometry" />
        </mxCell>
        <mxCell id="q6rLTLklX5a6nk730e43-346" value="N" style="rounded=0;whiteSpace=wrap;html=1;" parent="1" vertex="1">
          <mxGeometry x="1008" y="370" width="20" height="30" as="geometry" />
        </mxCell>
        <mxCell id="q6rLTLklX5a6nk730e43-347" value="P" style="rounded=0;whiteSpace=wrap;html=1;" parent="1" vertex="1">
          <mxGeometry x="818" y="370" width="20" height="30" as="geometry" />
        </mxCell>
        <mxCell id="q6rLTLklX5a6nk730e43-348" value="N" style="rounded=0;whiteSpace=wrap;html=1;" parent="1" vertex="1">
          <mxGeometry x="888" y="370" width="20" height="30" as="geometry" />
        </mxCell>
        <mxCell id="q6rLTLklX5a6nk730e43-349" value="P" style="rounded=0;whiteSpace=wrap;html=1;" parent="1" vertex="1">
          <mxGeometry x="938" y="370" width="20" height="30" as="geometry" />
        </mxCell>
        <mxCell id="q6rLTLklX5a6nk730e43-350" value="P" style="rounded=0;whiteSpace=wrap;html=1;fillColor=#f8cecc;strokeColor=#b85450;" parent="1" vertex="1">
          <mxGeometry x="818" y="370" width="20" height="30" as="geometry" />
        </mxCell>
        <mxCell id="q6rLTLklX5a6nk730e43-351" style="edgeStyle=orthogonalEdgeStyle;rounded=0;orthogonalLoop=1;jettySize=auto;html=1;exitX=0.5;exitY=0;exitDx=0;exitDy=0;entryX=0.5;entryY=0;entryDx=0;entryDy=0;" parent="1" source="q6rLTLklX5a6nk730e43-352" target="q6rLTLklX5a6nk730e43-345" edge="1">
          <mxGeometry relative="1" as="geometry" />
        </mxCell>
        <mxCell id="q6rLTLklX5a6nk730e43-352" value="N" style="rounded=0;whiteSpace=wrap;html=1;fillColor=#d5e8d4;strokeColor=#82b366;" parent="1" vertex="1">
          <mxGeometry x="888" y="370" width="20" height="30" as="geometry" />
        </mxCell>
        <mxCell id="q6rLTLklX5a6nk730e43-353" value="P" style="rounded=0;whiteSpace=wrap;html=1;fillColor=#f8cecc;strokeColor=#b85450;" parent="1" vertex="1">
          <mxGeometry x="938" y="370" width="20" height="30" as="geometry" />
        </mxCell>
        <mxCell id="q6rLTLklX5a6nk730e43-354" value="N" style="rounded=0;whiteSpace=wrap;html=1;fillColor=#f8cecc;strokeColor=#b85450;" parent="1" vertex="1">
          <mxGeometry x="1008" y="370" width="20" height="30" as="geometry" />
        </mxCell>
        <mxCell id="q6rLTLklX5a6nk730e43-355" value="Add an element when&lt;br&gt;queue already has items&lt;br&gt;Count = 2" style="text;html=1;align=center;verticalAlign=middle;resizable=0;points=[];autosize=1;strokeColor=none;fillColor=none;" parent="1" vertex="1">
          <mxGeometry x="43" y="345" width="150" height="60" as="geometry" />
        </mxCell>
        <mxCell id="q6rLTLklX5a6nk730e43-640" value="" style="rounded=1;whiteSpace=wrap;html=1;" parent="1" vertex="1">
          <mxGeometry x="188" y="490" width="870" height="110" as="geometry" />
        </mxCell>
        <mxCell id="q6rLTLklX5a6nk730e43-641" value="P" style="rounded=0;whiteSpace=wrap;html=1;fillColor=#f8cecc;strokeColor=#b85450;" parent="1" vertex="1">
          <mxGeometry x="208" y="530" width="20" height="30" as="geometry" />
        </mxCell>
        <mxCell id="q6rLTLklX5a6nk730e43-642" value="Head" style="rounded=0;whiteSpace=wrap;html=1;fillColor=#dae8fc;strokeColor=#6c8ebf;" parent="1" vertex="1">
          <mxGeometry x="228" y="530" width="50" height="30" as="geometry" />
        </mxCell>
        <mxCell id="q6rLTLklX5a6nk730e43-643" value="N" style="rounded=0;whiteSpace=wrap;html=1;" parent="1" vertex="1">
          <mxGeometry x="278" y="530" width="20" height="30" as="geometry" />
        </mxCell>
        <mxCell id="q6rLTLklX5a6nk730e43-644" value="P" style="rounded=0;whiteSpace=wrap;html=1;" parent="1" vertex="1">
          <mxGeometry x="338" y="530" width="20" height="30" as="geometry" />
        </mxCell>
        <mxCell id="q6rLTLklX5a6nk730e43-645" value="" style="rounded=0;whiteSpace=wrap;html=1;fillColor=#dae8fc;strokeColor=#6c8ebf;" parent="1" vertex="1">
          <mxGeometry x="358" y="530" width="50" height="30" as="geometry" />
        </mxCell>
        <mxCell id="q6rLTLklX5a6nk730e43-646" value="N" style="rounded=0;whiteSpace=wrap;html=1;" parent="1" vertex="1">
          <mxGeometry x="408" y="530" width="20" height="30" as="geometry" />
        </mxCell>
        <mxCell id="q6rLTLklX5a6nk730e43-647" value="P" style="rounded=0;whiteSpace=wrap;html=1;" parent="1" vertex="1">
          <mxGeometry x="458" y="530" width="20" height="30" as="geometry" />
        </mxCell>
        <mxCell id="q6rLTLklX5a6nk730e43-648" value="" style="rounded=0;whiteSpace=wrap;html=1;" parent="1" vertex="1">
          <mxGeometry x="478" y="530" width="50" height="30" as="geometry" />
        </mxCell>
        <mxCell id="q6rLTLklX5a6nk730e43-649" value="N" style="rounded=0;whiteSpace=wrap;html=1;" parent="1" vertex="1">
          <mxGeometry x="528" y="530" width="20" height="30" as="geometry" />
        </mxCell>
        <mxCell id="q6rLTLklX5a6nk730e43-650" value="N" style="rounded=0;whiteSpace=wrap;html=1;" parent="1" vertex="1">
          <mxGeometry x="278" y="530" width="20" height="30" as="geometry" />
        </mxCell>
        <mxCell id="q6rLTLklX5a6nk730e43-651" value="P" style="rounded=0;whiteSpace=wrap;html=1;" parent="1" vertex="1">
          <mxGeometry x="338" y="530" width="20" height="30" as="geometry" />
        </mxCell>
        <mxCell id="q6rLTLklX5a6nk730e43-652" value="N" style="rounded=0;whiteSpace=wrap;html=1;" parent="1" vertex="1">
          <mxGeometry x="408" y="530" width="20" height="30" as="geometry" />
        </mxCell>
        <mxCell id="q6rLTLklX5a6nk730e43-653" value="P" style="rounded=0;whiteSpace=wrap;html=1;" parent="1" vertex="1">
          <mxGeometry x="458" y="530" width="20" height="30" as="geometry" />
        </mxCell>
        <mxCell id="q6rLTLklX5a6nk730e43-654" style="edgeStyle=orthogonalEdgeStyle;rounded=0;orthogonalLoop=1;jettySize=auto;html=1;exitX=0.5;exitY=0;exitDx=0;exitDy=0;entryX=0.5;entryY=0;entryDx=0;entryDy=0;" parent="1" source="q6rLTLklX5a6nk730e43-655" target="q6rLTLklX5a6nk730e43-645" edge="1">
          <mxGeometry relative="1" as="geometry" />
        </mxCell>
        <mxCell id="q6rLTLklX5a6nk730e43-655" value="N" style="rounded=0;whiteSpace=wrap;html=1;fillColor=#f8cecc;strokeColor=#b85450;" parent="1" vertex="1">
          <mxGeometry x="278" y="530" width="20" height="30" as="geometry" />
        </mxCell>
        <mxCell id="q6rLTLklX5a6nk730e43-656" style="edgeStyle=orthogonalEdgeStyle;rounded=0;orthogonalLoop=1;jettySize=auto;html=1;exitX=0.5;exitY=1;exitDx=0;exitDy=0;entryX=0.5;entryY=1;entryDx=0;entryDy=0;" parent="1" source="q6rLTLklX5a6nk730e43-657" target="q6rLTLklX5a6nk730e43-642" edge="1">
          <mxGeometry relative="1" as="geometry" />
        </mxCell>
        <mxCell id="q6rLTLklX5a6nk730e43-657" value="P" style="rounded=0;whiteSpace=wrap;html=1;fillColor=#d5e8d4;strokeColor=#82b366;" parent="1" vertex="1">
          <mxGeometry x="338" y="530" width="20" height="30" as="geometry" />
        </mxCell>
        <mxCell id="q6rLTLklX5a6nk730e43-658" style="edgeStyle=orthogonalEdgeStyle;rounded=0;orthogonalLoop=1;jettySize=auto;html=1;exitX=0.5;exitY=0;exitDx=0;exitDy=0;entryX=0.5;entryY=0;entryDx=0;entryDy=0;" parent="1" source="q6rLTLklX5a6nk730e43-659" target="q6rLTLklX5a6nk730e43-648" edge="1">
          <mxGeometry relative="1" as="geometry" />
        </mxCell>
        <mxCell id="q6rLTLklX5a6nk730e43-659" value="N" style="rounded=0;whiteSpace=wrap;html=1;fillColor=#d5e8d4;strokeColor=#82b366;" parent="1" vertex="1">
          <mxGeometry x="408" y="530" width="20" height="30" as="geometry" />
        </mxCell>
        <mxCell id="q6rLTLklX5a6nk730e43-660" value="P" style="rounded=0;whiteSpace=wrap;html=1;fillColor=#f8cecc;strokeColor=#b85450;" parent="1" vertex="1">
          <mxGeometry x="458" y="530" width="20" height="30" as="geometry" />
        </mxCell>
        <mxCell id="q6rLTLklX5a6nk730e43-661" style="edgeStyle=orthogonalEdgeStyle;rounded=0;orthogonalLoop=1;jettySize=auto;html=1;exitX=0.5;exitY=0;exitDx=0;exitDy=0;entryX=0.5;entryY=0;entryDx=0;entryDy=0;" parent="1" source="q6rLTLklX5a6nk730e43-662" target="q6rLTLklX5a6nk730e43-665" edge="1">
          <mxGeometry relative="1" as="geometry" />
        </mxCell>
        <mxCell id="q6rLTLklX5a6nk730e43-662" value="N" style="rounded=0;whiteSpace=wrap;html=1;fillColor=#d5e8d4;strokeColor=#82b366;" parent="1" vertex="1">
          <mxGeometry x="528" y="530" width="20" height="30" as="geometry" />
        </mxCell>
        <mxCell id="q6rLTLklX5a6nk730e43-663" value="N" style="rounded=0;whiteSpace=wrap;html=1;fillColor=#d5e8d4;strokeColor=#82b366;" parent="1" vertex="1">
          <mxGeometry x="278" y="530" width="20" height="30" as="geometry" />
        </mxCell>
        <mxCell id="q6rLTLklX5a6nk730e43-664" value="P" style="rounded=0;whiteSpace=wrap;html=1;" parent="1" vertex="1">
          <mxGeometry x="578" y="530" width="20" height="30" as="geometry" />
        </mxCell>
        <mxCell id="q6rLTLklX5a6nk730e43-665" value="" style="rounded=0;whiteSpace=wrap;html=1;" parent="1" vertex="1">
          <mxGeometry x="598" y="530" width="50" height="30" as="geometry" />
        </mxCell>
        <mxCell id="q6rLTLklX5a6nk730e43-666" value="N" style="rounded=0;whiteSpace=wrap;html=1;" parent="1" vertex="1">
          <mxGeometry x="648" y="530" width="20" height="30" as="geometry" />
        </mxCell>
        <mxCell id="q6rLTLklX5a6nk730e43-667" value="P" style="rounded=0;whiteSpace=wrap;html=1;" parent="1" vertex="1">
          <mxGeometry x="698" y="530" width="20" height="30" as="geometry" />
        </mxCell>
        <mxCell id="q6rLTLklX5a6nk730e43-668" value="" style="rounded=0;whiteSpace=wrap;html=1;fillColor=#dae8fc;strokeColor=#6c8ebf;" parent="1" vertex="1">
          <mxGeometry x="718" y="530" width="50" height="30" as="geometry" />
        </mxCell>
        <mxCell id="q6rLTLklX5a6nk730e43-669" value="N" style="rounded=0;whiteSpace=wrap;html=1;" parent="1" vertex="1">
          <mxGeometry x="768" y="530" width="20" height="30" as="geometry" />
        </mxCell>
        <mxCell id="q6rLTLklX5a6nk730e43-670" value="P" style="rounded=0;whiteSpace=wrap;html=1;" parent="1" vertex="1">
          <mxGeometry x="578" y="530" width="20" height="30" as="geometry" />
        </mxCell>
        <mxCell id="q6rLTLklX5a6nk730e43-671" value="N" style="rounded=0;whiteSpace=wrap;html=1;" parent="1" vertex="1">
          <mxGeometry x="648" y="530" width="20" height="30" as="geometry" />
        </mxCell>
        <mxCell id="q6rLTLklX5a6nk730e43-672" value="P" style="rounded=0;whiteSpace=wrap;html=1;" parent="1" vertex="1">
          <mxGeometry x="698" y="530" width="20" height="30" as="geometry" />
        </mxCell>
        <mxCell id="q6rLTLklX5a6nk730e43-700" style="edgeStyle=orthogonalEdgeStyle;rounded=0;orthogonalLoop=1;jettySize=auto;html=1;exitX=0.5;exitY=1;exitDx=0;exitDy=0;entryX=0.5;entryY=1;entryDx=0;entryDy=0;" parent="1" source="q6rLTLklX5a6nk730e43-673" target="q6rLTLklX5a6nk730e43-694" edge="1">
          <mxGeometry relative="1" as="geometry" />
        </mxCell>
        <mxCell id="q6rLTLklX5a6nk730e43-673" value="P" style="rounded=0;whiteSpace=wrap;html=1;fillColor=#d5e8d4;strokeColor=#82b366;" parent="1" vertex="1">
          <mxGeometry x="578" y="530" width="20" height="30" as="geometry" />
        </mxCell>
        <mxCell id="q6rLTLklX5a6nk730e43-674" style="edgeStyle=orthogonalEdgeStyle;rounded=0;orthogonalLoop=1;jettySize=auto;html=1;exitX=0.5;exitY=0;exitDx=0;exitDy=0;entryX=0.5;entryY=0;entryDx=0;entryDy=0;" parent="1" source="q6rLTLklX5a6nk730e43-675" target="q6rLTLklX5a6nk730e43-668" edge="1">
          <mxGeometry relative="1" as="geometry" />
        </mxCell>
        <mxCell id="q6rLTLklX5a6nk730e43-675" value="N" style="rounded=0;whiteSpace=wrap;html=1;fillColor=#d5e8d4;strokeColor=#82b366;" parent="1" vertex="1">
          <mxGeometry x="648" y="530" width="20" height="30" as="geometry" />
        </mxCell>
        <mxCell id="q6rLTLklX5a6nk730e43-701" style="edgeStyle=orthogonalEdgeStyle;rounded=0;orthogonalLoop=1;jettySize=auto;html=1;exitX=0.5;exitY=1;exitDx=0;exitDy=0;entryX=0.5;entryY=1;entryDx=0;entryDy=0;" parent="1" source="q6rLTLklX5a6nk730e43-676" target="q6rLTLklX5a6nk730e43-695" edge="1">
          <mxGeometry relative="1" as="geometry" />
        </mxCell>
        <mxCell id="q6rLTLklX5a6nk730e43-676" value="P" style="rounded=0;whiteSpace=wrap;html=1;fillColor=#d5e8d4;strokeColor=#82b366;" parent="1" vertex="1">
          <mxGeometry x="698" y="530" width="20" height="30" as="geometry" />
        </mxCell>
        <mxCell id="q6rLTLklX5a6nk730e43-677" style="edgeStyle=orthogonalEdgeStyle;rounded=0;orthogonalLoop=1;jettySize=auto;html=1;exitX=0.5;exitY=0;exitDx=0;exitDy=0;entryX=0.5;entryY=0;entryDx=0;entryDy=0;" parent="1" source="q6rLTLklX5a6nk730e43-678" target="q6rLTLklX5a6nk730e43-680" edge="1">
          <mxGeometry relative="1" as="geometry" />
        </mxCell>
        <mxCell id="q6rLTLklX5a6nk730e43-678" value="N" style="rounded=0;whiteSpace=wrap;html=1;fillColor=#d5e8d4;strokeColor=#82b366;" parent="1" vertex="1">
          <mxGeometry x="768" y="530" width="20" height="30" as="geometry" />
        </mxCell>
        <mxCell id="q6rLTLklX5a6nk730e43-679" value="P" style="rounded=0;whiteSpace=wrap;html=1;" parent="1" vertex="1">
          <mxGeometry x="818" y="530" width="20" height="30" as="geometry" />
        </mxCell>
        <mxCell id="q6rLTLklX5a6nk730e43-680" value="" style="rounded=0;whiteSpace=wrap;html=1;fillColor=#dae8fc;strokeColor=#6c8ebf;" parent="1" vertex="1">
          <mxGeometry x="838" y="530" width="50" height="30" as="geometry" />
        </mxCell>
        <mxCell id="q6rLTLklX5a6nk730e43-681" value="N" style="rounded=0;whiteSpace=wrap;html=1;" parent="1" vertex="1">
          <mxGeometry x="888" y="530" width="20" height="30" as="geometry" />
        </mxCell>
        <mxCell id="q6rLTLklX5a6nk730e43-682" value="P" style="rounded=0;whiteSpace=wrap;html=1;" parent="1" vertex="1">
          <mxGeometry x="938" y="530" width="20" height="30" as="geometry" />
        </mxCell>
        <mxCell id="q6rLTLklX5a6nk730e43-683" value="Tail&lt;br&gt;End" style="rounded=0;whiteSpace=wrap;html=1;fillColor=#dae8fc;strokeColor=#6c8ebf;" parent="1" vertex="1">
          <mxGeometry x="958" y="530" width="50" height="30" as="geometry" />
        </mxCell>
        <mxCell id="q6rLTLklX5a6nk730e43-684" value="N" style="rounded=0;whiteSpace=wrap;html=1;" parent="1" vertex="1">
          <mxGeometry x="1008" y="530" width="20" height="30" as="geometry" />
        </mxCell>
        <mxCell id="q6rLTLklX5a6nk730e43-685" value="P" style="rounded=0;whiteSpace=wrap;html=1;" parent="1" vertex="1">
          <mxGeometry x="818" y="530" width="20" height="30" as="geometry" />
        </mxCell>
        <mxCell id="q6rLTLklX5a6nk730e43-686" value="N" style="rounded=0;whiteSpace=wrap;html=1;" parent="1" vertex="1">
          <mxGeometry x="888" y="530" width="20" height="30" as="geometry" />
        </mxCell>
        <mxCell id="q6rLTLklX5a6nk730e43-687" value="P" style="rounded=0;whiteSpace=wrap;html=1;" parent="1" vertex="1">
          <mxGeometry x="938" y="530" width="20" height="30" as="geometry" />
        </mxCell>
        <mxCell id="q6rLTLklX5a6nk730e43-702" style="edgeStyle=orthogonalEdgeStyle;rounded=0;orthogonalLoop=1;jettySize=auto;html=1;exitX=0.5;exitY=1;exitDx=0;exitDy=0;entryX=0.5;entryY=1;entryDx=0;entryDy=0;" parent="1" source="q6rLTLklX5a6nk730e43-688" target="q6rLTLklX5a6nk730e43-668" edge="1">
          <mxGeometry relative="1" as="geometry" />
        </mxCell>
        <mxCell id="q6rLTLklX5a6nk730e43-688" value="P" style="rounded=0;whiteSpace=wrap;html=1;fillColor=#d5e8d4;strokeColor=#82b366;" parent="1" vertex="1">
          <mxGeometry x="818" y="530" width="20" height="30" as="geometry" />
        </mxCell>
        <mxCell id="q6rLTLklX5a6nk730e43-689" style="edgeStyle=orthogonalEdgeStyle;rounded=0;orthogonalLoop=1;jettySize=auto;html=1;exitX=0.5;exitY=0;exitDx=0;exitDy=0;entryX=0.5;entryY=0;entryDx=0;entryDy=0;" parent="1" source="q6rLTLklX5a6nk730e43-690" target="q6rLTLklX5a6nk730e43-683" edge="1">
          <mxGeometry relative="1" as="geometry" />
        </mxCell>
        <mxCell id="q6rLTLklX5a6nk730e43-690" value="N" style="rounded=0;whiteSpace=wrap;html=1;fillColor=#d5e8d4;strokeColor=#82b366;" parent="1" vertex="1">
          <mxGeometry x="888" y="530" width="20" height="30" as="geometry" />
        </mxCell>
        <mxCell id="c1lAheNtGnEwH6ut3jd1-2" style="edgeStyle=orthogonalEdgeStyle;rounded=0;orthogonalLoop=1;jettySize=auto;html=1;exitX=0.5;exitY=1;exitDx=0;exitDy=0;entryX=0.5;entryY=1;entryDx=0;entryDy=0;" parent="1" source="q6rLTLklX5a6nk730e43-691" target="q6rLTLklX5a6nk730e43-680" edge="1">
          <mxGeometry relative="1" as="geometry" />
        </mxCell>
        <mxCell id="q6rLTLklX5a6nk730e43-691" value="P" style="rounded=0;whiteSpace=wrap;html=1;fillColor=#d5e8d4;strokeColor=#82b366;" parent="1" vertex="1">
          <mxGeometry x="938" y="530" width="20" height="30" as="geometry" />
        </mxCell>
        <mxCell id="q6rLTLklX5a6nk730e43-692" value="N" style="rounded=0;whiteSpace=wrap;html=1;fillColor=#f8cecc;strokeColor=#b85450;" parent="1" vertex="1">
          <mxGeometry x="1008" y="530" width="20" height="30" as="geometry" />
        </mxCell>
        <mxCell id="q6rLTLklX5a6nk730e43-693" value="Add the last element &lt;br&gt;in the queue (end)&lt;br&gt;Count = 7" style="text;html=1;align=center;verticalAlign=middle;resizable=0;points=[];autosize=1;strokeColor=none;fillColor=none;" parent="1" vertex="1">
          <mxGeometry x="53" y="505" width="130" height="60" as="geometry" />
        </mxCell>
        <mxCell id="q6rLTLklX5a6nk730e43-694" value="" style="rounded=0;whiteSpace=wrap;html=1;fillColor=#dae8fc;strokeColor=#6c8ebf;" parent="1" vertex="1">
          <mxGeometry x="478" y="530" width="50" height="30" as="geometry" />
        </mxCell>
        <mxCell id="q6rLTLklX5a6nk730e43-695" value="" style="rounded=0;whiteSpace=wrap;html=1;fillColor=#dae8fc;strokeColor=#6c8ebf;" parent="1" vertex="1">
          <mxGeometry x="598" y="530" width="50" height="30" as="geometry" />
        </mxCell>
        <mxCell id="q6rLTLklX5a6nk730e43-699" style="edgeStyle=orthogonalEdgeStyle;rounded=0;orthogonalLoop=1;jettySize=auto;html=1;exitX=0.5;exitY=1;exitDx=0;exitDy=0;entryX=0.5;entryY=1;entryDx=0;entryDy=0;" parent="1" source="q6rLTLklX5a6nk730e43-698" target="q6rLTLklX5a6nk730e43-645" edge="1">
          <mxGeometry relative="1" as="geometry" />
        </mxCell>
        <mxCell id="q6rLTLklX5a6nk730e43-698" value="P" style="rounded=0;whiteSpace=wrap;html=1;fillColor=#d5e8d4;strokeColor=#82b366;" parent="1" vertex="1">
          <mxGeometry x="458" y="530" width="20" height="30" as="geometry" />
        </mxCell>
      </root>
    </mxGraphModel>
  </diagram>
</mxfile>
